<svg width="64" height="143" viewBox="0 0 64 143" fill="none" xmlns="http://www.w3.org/2000/svg">
<path d="M18 143C16.24 143 14.76 142.56 13.56 141.68C12.36 140.72 11.56 139.52 11.16 138.08C10.76 136.64 10.76 135.08 11.16 133.4C11.64 131.72 12.56 130.16 13.92 128.72L43.32 93.44V97.64H17.28C15.12 97.64 13.44 97.04 12.24 95.84C11.04 94.64 10.44 93 10.44 90.92C10.44 88.68 11.04 87 12.24 85.88C13.44 84.68 15.12 84.08 17.28 84.08H51.96C54.12 84.08 55.84 84.56 57.12 85.52C58.4 86.48 59.24 87.68 59.64 89.12C60.12 90.48 60.16 92 59.76 93.68C59.44 95.28 58.6 96.8 57.24 98.24L27.12 134.24V129.56H54.96C59.52 129.56 61.8 131.8 61.8 136.28C61.8 138.44 61.2 140.12 60 141.32C58.8 142.44 57.12 143 54.96 143H18Z" fill="#37D06A"/>
<path d="M12 121C10.24 121 8.76 120.56 7.56 119.68C6.36 118.72 5.56 117.52 5.16 116.08C4.76 114.64 4.76 113.08 5.16 111.4C5.64 109.72 6.56 108.16 7.92 106.72L37.32 71.44V75.64H11.28C9.12 75.64 7.44 75.04 6.24 73.84C5.04 72.64 4.44 71 4.44 68.92C4.44 66.68 5.04 65 6.24 63.88C7.44 62.68 9.12 62.08 11.28 62.08H45.96C48.12 62.08 49.84 62.56 51.12 63.52C52.4 64.48 53.24 65.68 53.64 67.12C54.12 68.48 54.16 70 53.76 71.68C53.44 73.28 52.6 74.8 51.24 76.24L21.12 112.24V107.56H48.96C53.52 107.56 55.8 109.8 55.8 114.28C55.8 116.44 55.2 118.12 54 119.32C52.8 120.44 51.12 121 48.96 121H12Z" fill="#3C6DD5"/>
<path d="M32 106.966L49.5 106.966L38.5 121.034L20.5 121.034L32 106.966Z" fill="#3A9EA0"/>
<path d="M26.5978 84.0244L45 84.0244L33 98L16 97L26.5978 84.0244Z" fill="#3A9EA0"/>
</svg>
